<?xml version="1.0" encoding="utf-8"?>
<!-- Generator: Adobe Illustrator 24.0.2, SVG Export Plug-In . SVG Version: 6.00 Build 0)  -->
<svg version="1.1" id="レイヤー_1" xmlns="http://www.w3.org/2000/svg" xmlns:xlink="http://www.w3.org/1999/xlink" x="0px"
	 y="0px" viewBox="0 0 35 35" style="enable-background:new 0 0 35 35;" xml:space="preserve">
<style type="text/css">
	.st0{fill:#444444;}
	.st1{fill:#FFFFFF;}
</style>
<circle class="st0" cx="17.5" cy="17.5" r="17.5"/>
<g>
	<path class="st1" d="M22.6,29.6H12.5c-3.9,0-7.1-3.2-7.1-7.1v-10c0.1-3.9,3.2-7.1,7.1-7.1h10c3.9,0,7.1,3.2,7.1,7.1v10
		C29.6,26.4,26.5,29.6,22.6,29.6z M12.5,7.7c-2.7,0-4.8,2.2-4.8,4.8v10c0,2.7,2.2,4.8,4.8,4.8h10c2.7,0,4.8-2.2,4.8-4.8v-10
		c0-2.7-2.2-4.8-4.8-4.8C22.5,7.7,12.5,7.7,12.5,7.7z"/>
	<path class="st1" d="M25.5,11c0,0.8-0.7,1.5-1.5,1.5s-1.5-0.7-1.5-1.5s0.7-1.5,1.5-1.5S25.5,10.2,25.5,11z"/>
	<path class="st1" d="M17.5,23.7c-3.4,0-6.2-2.8-6.2-6.2s2.8-6.2,6.2-6.2c3.4,0,6.2,2.8,6.2,6.2C23.8,20.9,21,23.7,17.5,23.7z
		 M17.5,13.5c-2.2,0-4,1.8-4,4s1.8,4,4,4s4-1.8,4-4S19.7,13.5,17.5,13.5z"/>
</g>
</svg>
