<?xml version="1.0" encoding="utf-8"?>
<!-- Generator: Adobe Illustrator 24.0.2, SVG Export Plug-In . SVG Version: 6.00 Build 0)  -->
<svg version="1.1" id="レイヤー_1" xmlns="http://www.w3.org/2000/svg" xmlns:xlink="http://www.w3.org/1999/xlink" x="0px"
	 y="0px" viewBox="0 0 35 35" style="enable-background:new 0 0 35 35;" xml:space="preserve">
<style type="text/css">
	.st0{fill:#444444;}
	.st1{fill:#FFFFFF;}
</style>
<circle class="st0" cx="17.5" cy="17.5" r="17.5"/>
<g>
	<path class="st1" d="M18.1,5.3c-6.6,0-9.9,4.7-9.9,8.7c0,2.4,0.9,4.5,2.8,5.3c0.3,0.1,0.6,0,0.7-0.3c0.1-0.2,0.2-0.9,0.3-1.1
		c0.1-0.3,0.1-0.5-0.2-0.8c-0.6-0.7-0.9-1.5-0.9-2.7c0-3.5,2.6-6.6,6.8-6.6c3.7,0,5.8,2.3,5.8,5.3c0,4-1.8,7.4-4.4,7.4
		c-1.5,0-2.5-1.2-2.2-2.7c0.4-1.8,1.2-3.7,1.2-4.9c0-1.1-0.6-2.1-1.9-2.1c-1.5,0-2.7,1.5-2.7,3.6c0,1.3,0.4,2.2,0.4,2.2
		s-1.5,6.4-1.8,7.6c-0.5,2.2-0.1,5,0,5.3c0,0.2,0.2,0.2,0.3,0.1c0.1-0.2,1.9-2.4,2.5-4.5c0.2-0.6,1-3.8,1-3.8
		c0.5,0.9,1.9,1.7,3.4,1.7c4.5,0,7.5-4.1,7.5-9.5C26.9,9.1,23.4,5.3,18.1,5.3z"/>
</g>
</svg>
